<mxfile host="app.diagrams.net" modified="2020-11-13T10:15:42.509Z" agent="5.0 (Windows NT 10.0; Win64; x64) AppleWebKit/537.36 (KHTML, like Gecko) Chrome/86.0.4240.183 Safari/537.36" etag="nTYCPUgQBkvnQEld-z9B" version="13.9.7" type="github">
  <diagram id="C5RBs43oDa-KdzZeNtuy" name="Page-1">
    <mxGraphModel dx="1422" dy="762" grid="1" gridSize="10" guides="1" tooltips="1" connect="1" arrows="1" fold="1" page="1" pageScale="1" pageWidth="827" pageHeight="1169" math="0" shadow="0">
      <root>
        <mxCell id="WIyWlLk6GJQsqaUBKTNV-0" />
        <mxCell id="WIyWlLk6GJQsqaUBKTNV-1" parent="WIyWlLk6GJQsqaUBKTNV-0" />
        <mxCell id="WIyWlLk6GJQsqaUBKTNV-2" value="" style="rounded=0;html=1;jettySize=auto;orthogonalLoop=1;fontSize=11;endArrow=block;endFill=0;endSize=8;strokeWidth=1;shadow=0;labelBackgroundColor=none;edgeStyle=orthogonalEdgeStyle;" parent="WIyWlLk6GJQsqaUBKTNV-1" source="WIyWlLk6GJQsqaUBKTNV-3" target="5ombPGLARPtzgqZEAuVn-0" edge="1">
          <mxGeometry relative="1" as="geometry" />
        </mxCell>
        <mxCell id="WIyWlLk6GJQsqaUBKTNV-3" value="开始" style="rounded=1;whiteSpace=wrap;html=1;fontSize=12;glass=0;strokeWidth=1;shadow=0;" parent="WIyWlLk6GJQsqaUBKTNV-1" vertex="1">
          <mxGeometry x="109" y="80" width="120" height="40" as="geometry" />
        </mxCell>
        <mxCell id="WIyWlLk6GJQsqaUBKTNV-4" value="否" style="rounded=0;html=1;jettySize=auto;orthogonalLoop=1;fontSize=11;endArrow=block;endFill=0;endSize=8;strokeWidth=1;shadow=0;labelBackgroundColor=none;edgeStyle=orthogonalEdgeStyle;entryX=0.5;entryY=0;entryDx=0;entryDy=0;" parent="WIyWlLk6GJQsqaUBKTNV-1" source="WIyWlLk6GJQsqaUBKTNV-6" target="5ombPGLARPtzgqZEAuVn-14" edge="1">
          <mxGeometry y="20" relative="1" as="geometry">
            <mxPoint as="offset" />
          </mxGeometry>
        </mxCell>
        <object label="" placeholders="1" id="5ombPGLARPtzgqZEAuVn-5">
          <mxCell style="edgeStyle=orthogonalEdgeStyle;rounded=0;orthogonalLoop=1;jettySize=auto;html=1;fillColor=#fff2cc;strokeColor=#d6b656;" edge="1" parent="WIyWlLk6GJQsqaUBKTNV-1" source="WIyWlLk6GJQsqaUBKTNV-6" target="WIyWlLk6GJQsqaUBKTNV-7">
            <mxGeometry relative="1" as="geometry" />
          </mxCell>
        </object>
        <mxCell id="WIyWlLk6GJQsqaUBKTNV-6" value="数组是否为空" style="rhombus;whiteSpace=wrap;html=1;rounded=1;shadow=0;strokeWidth=1;glass=0;" parent="WIyWlLk6GJQsqaUBKTNV-1" vertex="1">
          <mxGeometry x="119" y="270" width="100" height="80" as="geometry" />
        </mxCell>
        <mxCell id="5ombPGLARPtzgqZEAuVn-15" value="" style="edgeStyle=orthogonalEdgeStyle;rounded=0;orthogonalLoop=1;jettySize=auto;html=1;entryX=1;entryY=0.5;entryDx=0;entryDy=0;fillColor=#ffe6cc;strokeColor=#d79b00;" edge="1" parent="WIyWlLk6GJQsqaUBKTNV-1" source="WIyWlLk6GJQsqaUBKTNV-7" target="5ombPGLARPtzgqZEAuVn-14">
          <mxGeometry relative="1" as="geometry">
            <Array as="points">
              <mxPoint x="389" y="420" />
            </Array>
          </mxGeometry>
        </mxCell>
        <mxCell id="WIyWlLk6GJQsqaUBKTNV-7" value="数组初始化&lt;br&gt;（resize）" style="rounded=1;whiteSpace=wrap;html=1;fontSize=12;glass=0;strokeWidth=1;shadow=0;" parent="WIyWlLk6GJQsqaUBKTNV-1" vertex="1">
          <mxGeometry x="329" y="290" width="120" height="40" as="geometry" />
        </mxCell>
        <mxCell id="WIyWlLk6GJQsqaUBKTNV-8" value="否" style="rounded=0;html=1;jettySize=auto;orthogonalLoop=1;fontSize=11;endArrow=block;endFill=0;endSize=8;strokeWidth=1;shadow=0;labelBackgroundColor=none;edgeStyle=orthogonalEdgeStyle;" parent="WIyWlLk6GJQsqaUBKTNV-1" source="WIyWlLk6GJQsqaUBKTNV-10" target="WIyWlLk6GJQsqaUBKTNV-11" edge="1">
          <mxGeometry x="0.3333" y="20" relative="1" as="geometry">
            <mxPoint as="offset" />
          </mxGeometry>
        </mxCell>
        <mxCell id="WIyWlLk6GJQsqaUBKTNV-9" value="是" style="edgeStyle=orthogonalEdgeStyle;rounded=0;html=1;jettySize=auto;orthogonalLoop=1;fontSize=11;endArrow=block;endFill=0;endSize=8;strokeWidth=1;shadow=0;labelBackgroundColor=none;" parent="WIyWlLk6GJQsqaUBKTNV-1" source="WIyWlLk6GJQsqaUBKTNV-10" edge="1">
          <mxGeometry x="0.0909" y="10" relative="1" as="geometry">
            <mxPoint as="offset" />
            <mxPoint x="329" y="530" as="targetPoint" />
          </mxGeometry>
        </mxCell>
        <mxCell id="WIyWlLk6GJQsqaUBKTNV-10" value="索引位置是否有节点" style="rhombus;whiteSpace=wrap;html=1;rounded=1;shadow=0;strokeWidth=1;glass=0;" parent="WIyWlLk6GJQsqaUBKTNV-1" vertex="1">
          <mxGeometry x="119" y="490" width="100" height="80" as="geometry" />
        </mxCell>
        <mxCell id="5ombPGLARPtzgqZEAuVn-31" value="" style="edgeStyle=orthogonalEdgeStyle;rounded=0;orthogonalLoop=1;jettySize=auto;html=1;" edge="1" parent="WIyWlLk6GJQsqaUBKTNV-1" source="WIyWlLk6GJQsqaUBKTNV-11" target="5ombPGLARPtzgqZEAuVn-30">
          <mxGeometry relative="1" as="geometry" />
        </mxCell>
        <mxCell id="WIyWlLk6GJQsqaUBKTNV-11" value="新建节点，放到索引位置" style="rounded=1;whiteSpace=wrap;html=1;fontSize=12;glass=0;strokeWidth=1;shadow=0;" parent="WIyWlLk6GJQsqaUBKTNV-1" vertex="1">
          <mxGeometry x="109" y="640" width="120" height="40" as="geometry" />
        </mxCell>
        <mxCell id="5ombPGLARPtzgqZEAuVn-3" value="" style="edgeStyle=orthogonalEdgeStyle;rounded=0;orthogonalLoop=1;jettySize=auto;html=1;" edge="1" parent="WIyWlLk6GJQsqaUBKTNV-1" source="5ombPGLARPtzgqZEAuVn-0" target="WIyWlLk6GJQsqaUBKTNV-6">
          <mxGeometry relative="1" as="geometry" />
        </mxCell>
        <mxCell id="5ombPGLARPtzgqZEAuVn-0" value="&lt;span&gt;计算key的hash值&lt;/span&gt;" style="rounded=1;whiteSpace=wrap;html=1;" vertex="1" parent="WIyWlLk6GJQsqaUBKTNV-1">
          <mxGeometry x="109" y="170" width="120" height="60" as="geometry" />
        </mxCell>
        <object label="" placeholders="1" id="5ombPGLARPtzgqZEAuVn-11">
          <mxCell style="edgeStyle=orthogonalEdgeStyle;rounded=0;orthogonalLoop=1;jettySize=auto;html=1;fillColor=#fff2cc;strokeColor=#d6b656;" edge="1" parent="WIyWlLk6GJQsqaUBKTNV-1">
            <mxGeometry relative="1" as="geometry">
              <mxPoint x="219" y="309.5" as="sourcePoint" />
              <mxPoint x="329" y="309.5" as="targetPoint" />
            </mxGeometry>
          </mxCell>
        </object>
        <mxCell id="5ombPGLARPtzgqZEAuVn-12" value="是" style="edgeLabel;html=1;align=center;verticalAlign=middle;resizable=0;points=[];" vertex="1" connectable="0" parent="5ombPGLARPtzgqZEAuVn-11">
          <mxGeometry x="-0.2909" relative="1" as="geometry">
            <mxPoint x="21" y="-9.5" as="offset" />
          </mxGeometry>
        </mxCell>
        <mxCell id="5ombPGLARPtzgqZEAuVn-33" value="" style="edgeStyle=orthogonalEdgeStyle;rounded=0;orthogonalLoop=1;jettySize=auto;html=1;" edge="1" parent="WIyWlLk6GJQsqaUBKTNV-1" source="5ombPGLARPtzgqZEAuVn-14" target="WIyWlLk6GJQsqaUBKTNV-10">
          <mxGeometry relative="1" as="geometry" />
        </mxCell>
        <mxCell id="5ombPGLARPtzgqZEAuVn-14" value="计算索引位置&lt;br&gt;（n-1）&amp;amp; hash" style="rounded=1;whiteSpace=wrap;html=1;" vertex="1" parent="WIyWlLk6GJQsqaUBKTNV-1">
          <mxGeometry x="109" y="390" width="120" height="60" as="geometry" />
        </mxCell>
        <mxCell id="5ombPGLARPtzgqZEAuVn-21" value="" style="edgeStyle=orthogonalEdgeStyle;rounded=0;orthogonalLoop=1;jettySize=auto;html=1;entryX=0;entryY=0.5;entryDx=0;entryDy=0;" edge="1" parent="WIyWlLk6GJQsqaUBKTNV-1" source="5ombPGLARPtzgqZEAuVn-17" target="5ombPGLARPtzgqZEAuVn-20">
          <mxGeometry relative="1" as="geometry">
            <Array as="points">
              <mxPoint x="459" y="530" />
              <mxPoint x="459" y="90" />
            </Array>
          </mxGeometry>
        </mxCell>
        <mxCell id="5ombPGLARPtzgqZEAuVn-36" value="否" style="edgeLabel;html=1;align=center;verticalAlign=middle;resizable=0;points=[];" vertex="1" connectable="0" parent="5ombPGLARPtzgqZEAuVn-21">
          <mxGeometry x="0.1804" y="1" relative="1" as="geometry">
            <mxPoint as="offset" />
          </mxGeometry>
        </mxCell>
        <mxCell id="5ombPGLARPtzgqZEAuVn-54" value="" style="edgeStyle=orthogonalEdgeStyle;rounded=0;orthogonalLoop=1;jettySize=auto;html=1;" edge="1" parent="WIyWlLk6GJQsqaUBKTNV-1" source="5ombPGLARPtzgqZEAuVn-17" target="5ombPGLARPtzgqZEAuVn-53">
          <mxGeometry relative="1" as="geometry" />
        </mxCell>
        <mxCell id="5ombPGLARPtzgqZEAuVn-17" value="头节点key和入参的key是否相等" style="rhombus;whiteSpace=wrap;html=1;rounded=1;shadow=0;strokeWidth=1;glass=0;" vertex="1" parent="WIyWlLk6GJQsqaUBKTNV-1">
          <mxGeometry x="329" y="490" width="100" height="80" as="geometry" />
        </mxCell>
        <mxCell id="5ombPGLARPtzgqZEAuVn-23" value="" style="edgeStyle=orthogonalEdgeStyle;rounded=0;orthogonalLoop=1;jettySize=auto;html=1;" edge="1" parent="WIyWlLk6GJQsqaUBKTNV-1" source="5ombPGLARPtzgqZEAuVn-20" target="5ombPGLARPtzgqZEAuVn-22">
          <mxGeometry relative="1" as="geometry" />
        </mxCell>
        <mxCell id="5ombPGLARPtzgqZEAuVn-34" value="是" style="edgeLabel;html=1;align=center;verticalAlign=middle;resizable=0;points=[];" vertex="1" connectable="0" parent="5ombPGLARPtzgqZEAuVn-23">
          <mxGeometry x="-0.05" relative="1" as="geometry">
            <mxPoint as="offset" />
          </mxGeometry>
        </mxCell>
        <mxCell id="5ombPGLARPtzgqZEAuVn-40" value="" style="edgeStyle=orthogonalEdgeStyle;rounded=0;orthogonalLoop=1;jettySize=auto;html=1;" edge="1" parent="WIyWlLk6GJQsqaUBKTNV-1" source="5ombPGLARPtzgqZEAuVn-20" target="5ombPGLARPtzgqZEAuVn-39">
          <mxGeometry relative="1" as="geometry" />
        </mxCell>
        <mxCell id="5ombPGLARPtzgqZEAuVn-41" value="否" style="edgeLabel;html=1;align=center;verticalAlign=middle;resizable=0;points=[];" vertex="1" connectable="0" parent="5ombPGLARPtzgqZEAuVn-40">
          <mxGeometry x="-0.1111" y="1" relative="1" as="geometry">
            <mxPoint as="offset" />
          </mxGeometry>
        </mxCell>
        <mxCell id="5ombPGLARPtzgqZEAuVn-20" value="头节点是否是红黑树节点" style="rhombus;whiteSpace=wrap;html=1;rounded=1;shadow=0;strokeWidth=1;glass=0;" vertex="1" parent="WIyWlLk6GJQsqaUBKTNV-1">
          <mxGeometry x="499" y="50" width="90" height="80" as="geometry" />
        </mxCell>
        <mxCell id="5ombPGLARPtzgqZEAuVn-25" value="" style="edgeStyle=orthogonalEdgeStyle;rounded=0;orthogonalLoop=1;jettySize=auto;html=1;" edge="1" parent="WIyWlLk6GJQsqaUBKTNV-1" source="5ombPGLARPtzgqZEAuVn-22" target="5ombPGLARPtzgqZEAuVn-24">
          <mxGeometry relative="1" as="geometry" />
        </mxCell>
        <mxCell id="5ombPGLARPtzgqZEAuVn-22" value="找到红黑树根节点，从根节点开始遍历" style="rounded=1;whiteSpace=wrap;html=1;" vertex="1" parent="WIyWlLk6GJQsqaUBKTNV-1">
          <mxGeometry x="484" y="170" width="120" height="60" as="geometry" />
        </mxCell>
        <mxCell id="5ombPGLARPtzgqZEAuVn-27" value="" style="edgeStyle=orthogonalEdgeStyle;rounded=0;orthogonalLoop=1;jettySize=auto;html=1;" edge="1" parent="WIyWlLk6GJQsqaUBKTNV-1" source="5ombPGLARPtzgqZEAuVn-24" target="5ombPGLARPtzgqZEAuVn-26">
          <mxGeometry relative="1" as="geometry" />
        </mxCell>
        <mxCell id="5ombPGLARPtzgqZEAuVn-35" value="否" style="edgeLabel;html=1;align=center;verticalAlign=middle;resizable=0;points=[];" vertex="1" connectable="0" parent="5ombPGLARPtzgqZEAuVn-27">
          <mxGeometry y="4" relative="1" as="geometry">
            <mxPoint as="offset" />
          </mxGeometry>
        </mxCell>
        <mxCell id="5ombPGLARPtzgqZEAuVn-24" value="是否找到key相同的节点" style="rhombus;whiteSpace=wrap;html=1;rounded=1;shadow=0;strokeWidth=1;glass=0;" vertex="1" parent="WIyWlLk6GJQsqaUBKTNV-1">
          <mxGeometry x="489" y="280" width="110" height="80" as="geometry" />
        </mxCell>
        <mxCell id="5ombPGLARPtzgqZEAuVn-29" value="" style="edgeStyle=orthogonalEdgeStyle;rounded=0;orthogonalLoop=1;jettySize=auto;html=1;" edge="1" parent="WIyWlLk6GJQsqaUBKTNV-1" source="5ombPGLARPtzgqZEAuVn-26" target="5ombPGLARPtzgqZEAuVn-28">
          <mxGeometry relative="1" as="geometry" />
        </mxCell>
        <mxCell id="5ombPGLARPtzgqZEAuVn-26" value="新建节点，放到红黑树相应位置" style="rounded=1;whiteSpace=wrap;html=1;" vertex="1" parent="WIyWlLk6GJQsqaUBKTNV-1">
          <mxGeometry x="484" y="430" width="120" height="60" as="geometry" />
        </mxCell>
        <mxCell id="5ombPGLARPtzgqZEAuVn-28" value="进行红黑树的插入平衡调整" style="rounded=1;whiteSpace=wrap;html=1;" vertex="1" parent="WIyWlLk6GJQsqaUBKTNV-1">
          <mxGeometry x="484" y="550" width="120" height="60" as="geometry" />
        </mxCell>
        <mxCell id="5ombPGLARPtzgqZEAuVn-60" value="" style="edgeStyle=orthogonalEdgeStyle;rounded=0;orthogonalLoop=1;jettySize=auto;html=1;" edge="1" parent="WIyWlLk6GJQsqaUBKTNV-1" source="5ombPGLARPtzgqZEAuVn-30" target="5ombPGLARPtzgqZEAuVn-59">
          <mxGeometry relative="1" as="geometry" />
        </mxCell>
        <mxCell id="5ombPGLARPtzgqZEAuVn-30" value="当前节点数是否超过扩容阈值" style="rhombus;whiteSpace=wrap;html=1;rounded=1;shadow=0;strokeWidth=1;glass=0;" vertex="1" parent="WIyWlLk6GJQsqaUBKTNV-1">
          <mxGeometry x="109" y="740" width="120" height="80" as="geometry" />
        </mxCell>
        <mxCell id="5ombPGLARPtzgqZEAuVn-43" value="" style="edgeStyle=orthogonalEdgeStyle;rounded=0;orthogonalLoop=1;jettySize=auto;html=1;" edge="1" parent="WIyWlLk6GJQsqaUBKTNV-1" source="5ombPGLARPtzgqZEAuVn-39" target="5ombPGLARPtzgqZEAuVn-42">
          <mxGeometry relative="1" as="geometry" />
        </mxCell>
        <mxCell id="5ombPGLARPtzgqZEAuVn-39" value="遍历链表节点，统计节点个数" style="whiteSpace=wrap;html=1;rounded=1;shadow=0;strokeWidth=1;glass=0;" vertex="1" parent="WIyWlLk6GJQsqaUBKTNV-1">
          <mxGeometry x="670" y="60" width="120" height="60" as="geometry" />
        </mxCell>
        <mxCell id="5ombPGLARPtzgqZEAuVn-45" value="" style="edgeStyle=orthogonalEdgeStyle;rounded=0;orthogonalLoop=1;jettySize=auto;html=1;" edge="1" parent="WIyWlLk6GJQsqaUBKTNV-1" source="5ombPGLARPtzgqZEAuVn-42" target="5ombPGLARPtzgqZEAuVn-44">
          <mxGeometry relative="1" as="geometry" />
        </mxCell>
        <mxCell id="5ombPGLARPtzgqZEAuVn-57" value="" style="edgeStyle=orthogonalEdgeStyle;rounded=0;orthogonalLoop=1;jettySize=auto;html=1;entryX=1;entryY=0.5;entryDx=0;entryDy=0;" edge="1" parent="WIyWlLk6GJQsqaUBKTNV-1" source="5ombPGLARPtzgqZEAuVn-42" target="5ombPGLARPtzgqZEAuVn-53">
          <mxGeometry relative="1" as="geometry">
            <mxPoint x="640" y="710" as="targetPoint" />
            <Array as="points">
              <mxPoint x="620" y="200" />
              <mxPoint x="620" y="690" />
            </Array>
          </mxGeometry>
        </mxCell>
        <mxCell id="5ombPGLARPtzgqZEAuVn-42" value="是否找到key相同的节点" style="rhombus;whiteSpace=wrap;html=1;rounded=1;shadow=0;strokeWidth=1;glass=0;" vertex="1" parent="WIyWlLk6GJQsqaUBKTNV-1">
          <mxGeometry x="670" y="160" width="120" height="80" as="geometry" />
        </mxCell>
        <mxCell id="5ombPGLARPtzgqZEAuVn-47" value="" style="edgeStyle=orthogonalEdgeStyle;rounded=0;orthogonalLoop=1;jettySize=auto;html=1;" edge="1" parent="WIyWlLk6GJQsqaUBKTNV-1" source="5ombPGLARPtzgqZEAuVn-44" target="5ombPGLARPtzgqZEAuVn-46">
          <mxGeometry relative="1" as="geometry" />
        </mxCell>
        <mxCell id="5ombPGLARPtzgqZEAuVn-44" value="新建节点，放到链表尾部" style="whiteSpace=wrap;html=1;rounded=1;shadow=0;strokeWidth=1;glass=0;" vertex="1" parent="WIyWlLk6GJQsqaUBKTNV-1">
          <mxGeometry x="670" y="290" width="120" height="60" as="geometry" />
        </mxCell>
        <mxCell id="5ombPGLARPtzgqZEAuVn-49" value="" style="edgeStyle=orthogonalEdgeStyle;rounded=0;orthogonalLoop=1;jettySize=auto;html=1;" edge="1" parent="WIyWlLk6GJQsqaUBKTNV-1" source="5ombPGLARPtzgqZEAuVn-46" target="5ombPGLARPtzgqZEAuVn-48">
          <mxGeometry relative="1" as="geometry" />
        </mxCell>
        <mxCell id="5ombPGLARPtzgqZEAuVn-50" value="是" style="edgeLabel;html=1;align=center;verticalAlign=middle;resizable=0;points=[];" vertex="1" connectable="0" parent="5ombPGLARPtzgqZEAuVn-49">
          <mxGeometry x="-0.1667" y="3" relative="1" as="geometry">
            <mxPoint as="offset" />
          </mxGeometry>
        </mxCell>
        <mxCell id="5ombPGLARPtzgqZEAuVn-51" value="" style="edgeStyle=orthogonalEdgeStyle;rounded=0;orthogonalLoop=1;jettySize=auto;html=1;entryX=1;entryY=0.5;entryDx=0;entryDy=0;" edge="1" parent="WIyWlLk6GJQsqaUBKTNV-1" source="5ombPGLARPtzgqZEAuVn-46" target="5ombPGLARPtzgqZEAuVn-30">
          <mxGeometry relative="1" as="geometry">
            <Array as="points">
              <mxPoint x="640" y="450" />
              <mxPoint x="640" y="780" />
            </Array>
          </mxGeometry>
        </mxCell>
        <mxCell id="5ombPGLARPtzgqZEAuVn-52" value="否" style="edgeLabel;html=1;align=center;verticalAlign=middle;resizable=0;points=[];" vertex="1" connectable="0" parent="5ombPGLARPtzgqZEAuVn-51">
          <mxGeometry x="-0.9014" relative="1" as="geometry">
            <mxPoint as="offset" />
          </mxGeometry>
        </mxCell>
        <mxCell id="5ombPGLARPtzgqZEAuVn-46" value="节点数是否超过8个" style="rhombus;whiteSpace=wrap;html=1;rounded=1;shadow=0;strokeWidth=1;glass=0;" vertex="1" parent="WIyWlLk6GJQsqaUBKTNV-1">
          <mxGeometry x="690" y="410" width="80" height="80" as="geometry" />
        </mxCell>
        <mxCell id="5ombPGLARPtzgqZEAuVn-48" value="链表转红黑树" style="whiteSpace=wrap;html=1;rounded=1;shadow=0;strokeWidth=1;glass=0;" vertex="1" parent="WIyWlLk6GJQsqaUBKTNV-1">
          <mxGeometry x="670" y="550" width="120" height="60" as="geometry" />
        </mxCell>
        <mxCell id="5ombPGLARPtzgqZEAuVn-56" value="" style="edgeStyle=orthogonalEdgeStyle;rounded=0;orthogonalLoop=1;jettySize=auto;html=1;" edge="1" parent="WIyWlLk6GJQsqaUBKTNV-1" source="5ombPGLARPtzgqZEAuVn-53" target="5ombPGLARPtzgqZEAuVn-55">
          <mxGeometry relative="1" as="geometry" />
        </mxCell>
        <mxCell id="5ombPGLARPtzgqZEAuVn-53" value="直接覆盖value" style="whiteSpace=wrap;html=1;rounded=1;shadow=0;strokeWidth=1;glass=0;" vertex="1" parent="WIyWlLk6GJQsqaUBKTNV-1">
          <mxGeometry x="319" y="660" width="120" height="60" as="geometry" />
        </mxCell>
        <mxCell id="5ombPGLARPtzgqZEAuVn-55" value="返回原节点" style="whiteSpace=wrap;html=1;rounded=1;shadow=0;strokeWidth=1;glass=0;" vertex="1" parent="WIyWlLk6GJQsqaUBKTNV-1">
          <mxGeometry x="319" y="870" width="120" height="60" as="geometry" />
        </mxCell>
        <mxCell id="5ombPGLARPtzgqZEAuVn-59" value="" style="whiteSpace=wrap;html=1;rounded=1;shadow=0;strokeWidth=1;glass=0;" vertex="1" parent="WIyWlLk6GJQsqaUBKTNV-1">
          <mxGeometry x="109" y="870" width="120" height="60" as="geometry" />
        </mxCell>
      </root>
    </mxGraphModel>
  </diagram>
</mxfile>
